# xmcd
#
# Track frame offsets: 
#        150
#        19233
#        36703
#        53613
#        84129
#        102871
#        121180
#        134230
#        142608
#        163623
#        193829
#
# Disc length: 2728 seconds
#
# Revision: 1
# Processed by: cddbd v1.5.2PL0 Copyright (c) Steve Scherf et al.
# Submitted via: ExactAudioCopyFreeDBPlugin 1.0
#
DISCID=910aa60b
DTITLE=Viitasen Piia - Uni onnesta
DYEAR=2014
DGENRE=
TTITLE0=Ukkoslaulu
TTITLE1=Tuntemattomalle Ainolle
TTITLE2=Eilen luvattiin lunta (Hoosianna)
TTITLE3=Vanhassa kodissa
TTITLE4=Lehtolapsi
TTITLE5=Nuku, oi nuku
TTITLE6=Tilinpäätös
TTITLE7=Luopumisen aikaan
TTITLE8=Keinu
TTITLE9=Uni onnesta
TTITLE10=Anni
EXTD=
EXTT0=
EXTT1=
EXTT2=
EXTT3=
EXTT4=
EXTT5=
EXTT6=
EXTT7=
EXTT8=
EXTT9=
EXTT10=
PLAYORDER=
